<svg xmlns="http://www.w3.org/2000/svg" width="141" height="145" preserveAspectRatio="none" viewBox="0 0 141 145"><metadata><rdf:RDF xmlns:rdf="http://www.w3.org/1999/02/22-rdf-syntax-ns#"><rdf:Description><schema:license xmlns:schema="http://schema.org/">s3://biorender-tasks-prod/copyright.svg</schema:license></rdf:Description></rdf:RDF></metadata><g id="editable"><g id="cell"><path d="M133.94,73.09c0,35.29-26.68,64.93-62,64.93S7.06,107.71,7.06,72.42,37.2,7,72.49,7,133.94,37.8,133.94,73.09Z" fill="#aad1b4" stroke="#679367" stroke-miterlimit="10" stroke-width="2"/></g><g id="nucleus"><path d="M78.18,117.69a36.6,36.6,0,0,1-10.27-.79A40,40,0,0,1,38.47,88.07a40,40,0,0,1,12.72-39.2c14-11.84,36.85-11.7,51,0A39.72,39.72,0,0,1,115.35,87C111.54,104.66,95.82,116.59,78.18,117.69Z" fill="#72b28a" stroke="#528e6c" stroke-miterlimit="10" stroke-width="1.47"/></g></g></svg>